<svg xmlns="http://www.w3.org/2000/svg" width="640" height="140" viewBox="0 0 640 140" version="1.1"><path d="M 113.415 6.421 C 105.728 9.768, 103.304 19.960, 108.750 26.037 C 116.307 34.471, 129 29.433, 129 18 C 129 12.432, 126.408 8.486, 121.364 6.379 C 117.402 4.723, 117.314 4.724, 113.415 6.421 M 12 71.913 L 12 132 23 132 L 34 132 34 111 L 34 90 42.319 90 L 50.638 90 60.453 111 L 70.268 132 82.588 132 L 94.908 132 86.340 114.250 C 72.358 85.282, 72.571 85.820, 74.630 84.668 C 79.186 82.118, 84.972 75.470, 87.615 69.747 C 90.299 63.936, 90.497 62.663, 90.458 51.500 C 90.423 41.301, 90.062 38.604, 88.055 33.531 C 84.887 25.527, 77.465 18.107, 69.469 14.952 C 63.860 12.739, 61.945 12.573, 37.750 12.211 L 12 11.826 12 71.913 M 231 72 L 231 132 242 132 L 253 132 253.002 102.750 C 253.003 76.898, 253.206 73.096, 254.752 70.020 C 258.913 61.738, 269.807 59.258, 276.441 65.082 C 278.410 66.811, 280.399 69.775, 280.970 71.832 C 281.550 73.922, 281.991 87.657, 281.994 103.750 L 282 132 293.081 132 L 304.162 132 303.791 98.250 C 303.432 65.664, 303.339 64.296, 301.079 58.593 C 296.380 46.733, 286.067 40.172, 273.861 41.279 C 264.545 42.124, 258.584 46.504, 253.148 56.500 C 252.338 57.990, 252.053 52.572, 252.030 35.250 L 252 12 241.500 12 L 231 12 231 72 M 512.667 12.667 C 512.300 13.033, 511.980 23.271, 511.956 35.417 L 511.912 57.500 510.030 53.941 C 501.959 38.677, 482.217 36.633, 469.453 49.742 C 461.552 57.855, 457.751 69.727, 457.684 86.500 C 457.591 109.751, 464.705 125.143, 478.273 131.049 C 483.966 133.526, 493.352 134.043, 498.198 132.146 C 502.054 130.636, 508.552 124.496, 510.004 120.989 C 512 116.171, 513 117.509, 513 125 L 513 132 523.500 132 L 534 132 534 72 L 534 12 523.667 12 C 517.983 12, 513.033 12.300, 512.667 12.667 M 552.515 14.162 C 552.203 15.448, 552.072 42.375, 552.224 74 L 552.500 131.500 563.750 131.783 L 575 132.066 575 112.640 L 575 93.214 590.250 92.778 C 603.069 92.412, 606.259 92.001, 610.259 90.203 C 617.298 87.038, 624.271 80.016, 627.485 72.855 C 637.650 50.203, 629.078 22.689, 609.441 14.943 C 603.884 12.751, 601.872 12.575, 578.291 12.212 L 553.082 11.824 552.515 14.162 M 34 50.895 L 34 69 44.788 69 C 57.642 69, 63.258 66.911, 66.302 61 C 68.824 56.102, 68.318 44.242, 65.421 40.363 C 60.890 34.293, 58.826 33.529, 45.927 33.145 L 34 32.789 34 50.895 M 575 52.914 L 575 73 584.750 72.978 C 599.900 72.944, 605.651 69.389, 608.074 58.561 C 610.208 49.026, 607.516 40.663, 600.680 35.592 C 598.286 33.816, 596.137 33.449, 586.430 33.164 L 575 32.828 575 52.914 M 171.734 42.024 C 158.545 45.355, 148.503 56.291, 144.492 71.693 C 142.559 79.112, 142.559 95.888, 144.492 103.307 C 147.582 115.171, 154.984 125.411, 163.655 129.815 C 172.602 134.360, 184.965 134.959, 195.500 131.357 C 205.671 127.880, 215.105 115.149, 216.144 103.497 L 216.500 99.500 206.500 99.233 L 196.500 98.965 194.500 104.204 C 190.189 115.496, 176.860 117.633, 170.085 108.119 C 162.511 97.483, 163.778 71.968, 172.268 64.166 C 179.841 57.206, 191.647 60.892, 194.957 71.250 L 196.155 75 206.578 75 C 212.310 75, 217 74.797, 217 74.549 C 217 71.932, 214.268 62.540, 212.465 58.960 C 209.619 53.309, 202.310 46.467, 196.258 43.790 C 190.998 41.463, 177.738 40.508, 171.734 42.024 M 343.500 42.327 C 332.427 45.172, 323.242 54.376, 320.624 65.250 C 320.025 67.739, 320.225 68.006, 322.731 68.062 C 324.254 68.096, 328.808 68.455, 332.852 68.860 C 339.779 69.554, 340.250 69.473, 341.015 67.459 C 342.222 64.287, 347.589 60.168, 351.464 59.441 C 355.516 58.681, 361.079 60.325, 363.497 62.997 C 364.454 64.054, 365.462 66.917, 365.737 69.359 C 366.182 73.304, 365.950 73.987, 363.654 75.491 C 362.208 76.439, 355.881 77.965, 349.283 78.957 C 335.417 81.044, 328.289 83.831, 323.629 88.989 C 319.094 94.009, 317.512 99.003, 317.607 108 C 317.782 124.399, 327.251 133.537, 344 133.470 C 353.084 133.433, 358.649 130.807, 363.703 124.172 L 367 119.845 367 125.922 L 367 132 377.559 132 L 388.118 132 387.809 97.250 C 387.506 63.173, 387.455 62.408, 385.166 57.761 C 382.247 51.833, 375.333 45.659, 369.195 43.497 C 362.968 41.304, 349.812 40.705, 343.500 42.327 M 438.500 42.394 C 434.541 44.192, 430.530 48.560, 428.303 53.500 L 426.500 57.500 426.208 49.750 L 425.916 42 415.458 42 L 405 42 405 87 L 405 132 415.957 132 L 426.915 132 427.207 102.670 L 427.500 73.340 430.302 69.669 C 434.495 64.174, 438.052 62.721, 446.183 63.180 L 453.061 63.569 452.781 52.534 L 452.500 41.500 447 41.266 C 443.975 41.138, 440.150 41.645, 438.500 42.394 M 106.990 42.250 C 106.984 42.388, 106.871 62.638, 106.740 87.250 L 106.500 132 117.250 132 L 128 132 128 87 L 128 42 117.500 42 C 111.725 42, 106.995 42.112, 106.990 42.250 M 489 63.162 C 487.006 64.495, 484.424 67.654, 483 70.501 C 480.750 75, 480.500 76.700, 480.500 87.500 C 480.500 98.594, 480.703 99.885, 483.188 104.594 C 488.471 114.608, 497.616 116.788, 505.457 109.904 C 510.431 105.536, 512.472 98.732, 512.476 86.499 C 512.478 77.546, 512.182 75.893, 509.648 70.712 C 506.325 63.922, 503.603 61.855, 497.193 61.259 C 493.460 60.911, 491.784 61.301, 489 63.162 M 363.830 91.503 C 363.553 91.780, 359.219 92.885, 354.198 93.958 C 343.799 96.180, 340.729 97.825, 338.945 102.132 C 335.933 109.405, 341.238 116.398, 349.746 116.368 C 355.529 116.348, 360.068 114.115, 363.171 109.765 C 366.636 104.907, 367.243 88.091, 363.830 91.503" stroke="none" fill="#0e0e0e" fill-rule="evenodd"/></svg>