<?xml version="1.0" encoding="UTF-8"?>
<svg id="Layer_1" xmlns="http://www.w3.org/2000/svg" viewBox="0 0 260 47">
  <defs>
    <style>
      .cls-1 {
        fill: #111;
      }
    </style>
  </defs>
  <path class="cls-1" d="M1.42,2.61h17.21c9.91,0,15.64,5.58,15.64,14.25,0,5.96-2.75,10.29-7.71,12.42l9.27,16.96h-10.18l-8.27-15.46h-6.73v15.46H1.42V2.61ZM16.91,23.36c5.28,0,7.86-2.17,7.86-6.5s-2.58-6.71-7.9-6.71h-6.22v13.21h6.26Z"/>
  <path class="cls-1" d="M40.28,4.7c0-2.51,2.22-4.58,4.9-4.58s4.92,2.07,4.92,4.58-2.22,4.6-4.92,4.6-4.9-2.07-4.9-4.6ZM40.62,13.52h9.07v32.72h-9.07V13.52Z"/>
  <path class="cls-1" d="M55.62,30.01c0-10.03,6.13-16.91,16.06-16.91,8.54,0,14.27,4.96,14.66,12.52h-8.56c-.49-3.26-2.62-5.45-5.94-5.45-4.22,0-6.99,3.54-6.99,9.71s2.75,9.82,6.99,9.82c3.11,0,5.41-1.96,5.94-5.45h8.56c-.43,7.52-5.9,12.63-14.61,12.63-10.08,0-16.1-6.92-16.1-16.87Z"/>
  <path class="cls-1" d="M101.26,46.24h-9.07V2.61h8.82v16.68h.38c1.49-3.86,4.81-6.2,9.78-6.2,6.82,0,11.33,4.64,11.31,12.31v20.83h-9.07v-19.21c.02-4.03-2.15-6.39-5.84-6.39s-6.28,2.47-6.3,6.69v18.92Z"/>
  <path class="cls-1" d="M128.11,37.1c0-7.31,5.82-9.48,12.29-10.08,5.69-.55,7.92-.83,7.92-2.94v-.13c0-2.68-1.77-4.24-4.86-4.24-3.26,0-5.2,1.6-5.82,3.77l-8.39-.68c1.26-5.96,6.41-9.71,14.25-9.71,7.28,0,13.89,3.28,13.89,11.08v22.07h-8.61v-4.54h-.26c-1.6,3.05-4.73,5.16-9.56,5.16-6.24,0-10.86-3.28-10.86-9.76ZM148.39,34.54v-3.47c-1.09.72-4.32,1.19-6.31,1.47-3.2.45-5.3,1.7-5.3,4.26s2,3.79,4.79,3.79c3.98,0,6.82-2.62,6.82-6.05Z"/>
  <path class="cls-1" d="M164.45,13.52h8.8v5.71h.34c1.19-4.05,4.2-6.18,7.86-6.18.92,0,2.04.13,2.85.32v8.05c-.85-.28-2.58-.49-3.83-.49-4,0-6.94,2.77-6.94,6.79v18.51h-9.07V13.52Z"/>
  <path class="cls-1" d="M186.23,29.92c0-11.25,6.07-16.83,13.25-16.83,5.47,0,8.09,3.26,9.31,5.92h.28V2.61h9.05v43.62h-8.95v-5.24h-.38c-1.26,2.73-4,5.77-9.29,5.77-7.46,0-13.27-5.9-13.27-16.85ZM209.26,29.88c0-5.84-2.47-9.56-6.88-9.56s-6.88,3.9-6.88,9.56,2.43,9.67,6.88,9.67,6.88-3.83,6.88-9.67Z"/>
  <path class="cls-1" d="M225.73,2.61h17.21c9.91,0,15.63,6.11,15.63,14.78s-5.84,14.7-15.87,14.7h-7.75v14.14h-9.22V2.61ZM241.22,24.7c5.28,0,7.86-2.98,7.86-7.31s-2.58-7.24-7.9-7.24h-6.22v14.55h6.26Z"/>
</svg>