<?xml version="1.0" standalone="no"?>
<!DOCTYPE svg PUBLIC "-//W3C//DTD SVG 20010904//EN"
 "http://www.w3.org/TR/2001/REC-SVG-20010904/DTD/svg10.dtd">
<svg version="1.0" xmlns="http://www.w3.org/2000/svg"
 width="2920.000000pt" height="2920.000000pt" viewBox="0 0 2920.000000 2920.000000"
 preserveAspectRatio="xMidYMid meet">
<metadata>
Created by potrace 1.14, written by Peter Selinger 2001-2017
</metadata>
<g transform="translate(0.000000,2920.000000) scale(0.100000,-0.100000)"
fill="#000000" stroke="none">
<path d="M441 18830 c-4 -3 -8 -1927 -8 -4275 l0 -4270 844 0 c803 0 844 0
840 17 -3 10 -2 20 3 23 4 3 5 20 1 37 -6 31 -7 47 -1 66 1 4 1 27 0 51 -5
128 -4 181 3 181 5 0 6 4 3 9 -5 7 -7 69 -5 141 0 8 0 112 0 230 -1 234 -1
222 0 330 1 41 0 84 0 95 -6 91 -5 155 2 155 5 0 6 4 3 9 -5 8 -7 54 -5 146 0
49 0 472 0 495 -1 14 -3 35 -5 48 -3 12 -1 22 4 22 4 0 6 8 4 18 -8 33 -9 222
-1 222 5 0 6 4 3 9 -5 7 -7 69 -5 141 1 58 -1 506 -2 518 -1 4 -1 21 0 37 l1
30 615 0 615 0 195 -390 c107 -214 195 -394 195 -400 1 -5 7 -17 13 -25 20
-26 37 -59 37 -74 0 -8 3 -16 8 -18 6 -3 116 -216 117 -228 0 -3 4 -11 8 -17
10 -16 131 -256 132 -263 1 -3 28 -57 60 -120 33 -63 62 -122 65 -130 13 -34
58 -120 71 -136 8 -9 13 -19 11 -21 -3 -5 121 -257 131 -264 5 -3 9 -9 8 -12
0 -10 37 -92 46 -101 4 -4 8 -11 8 -14 0 -12 120 -247 128 -253 5 -3 8 -9 7
-13 -1 -6 257 -533 268 -546 4 -6 1862 -7 1862 -2 0 3 -16 33 -35 68 -18 35
-32 64 -29 64 3 0 -3 12 -13 28 -11 15 -59 108 -109 207 -49 99 -91 182 -94
185 -3 3 -66 127 -140 275 -74 149 -138 272 -141 275 -4 3 -17 29 -29 58 -12
28 -27 52 -33 52 -6 0 -7 3 -4 7 4 3 -9 35 -29 70 -19 34 -31 63 -27 63 4 0 3
4 -3 8 -6 4 -24 34 -40 67 -16 33 -31 62 -34 65 -3 3 -41 77 -84 165 -44 88
-84 163 -90 167 -6 4 -8 8 -4 8 4 0 -19 51 -51 113 -52 101 -130 253 -475 931
-59 115 -110 214 -114 220 -4 6 -7 13 -7 16 -1 3 -23 48 -50 100 -28 52 -51
98 -53 101 -2 4 39 28 90 53 105 53 252 141 315 189 23 18 54 41 69 52 15 11
33 26 40 33 7 6 16 12 19 12 13 0 282 276 325 335 25 33 48 62 51 65 6 6 70
98 84 122 6 10 28 48 50 85 41 69 100 187 129 256 9 20 22 52 30 70 20 44 87
246 92 277 3 14 10 43 16 65 15 53 26 103 33 145 1 8 5 26 8 40 7 28 14 73 23
140 3 25 7 56 9 69 9 54 19 214 19 328 1 68 3 123 6 123 3 0 6 9 6 20 0 11 -3
20 -6 20 -3 0 -6 44 -7 98 -1 53 -4 124 -7 157 -8 99 -15 168 -20 200 -3 17
-7 48 -11 70 -5 34 -29 155 -40 205 -19 87 -27 120 -37 150 -14 47 -58 181
-66 200 -3 8 -6 17 -7 20 -11 32 -29 77 -55 135 -28 62 -38 88 -38 99 0 5 -4
12 -9 15 -4 3 -19 29 -33 56 -14 28 -49 88 -78 135 -29 47 -58 94 -65 105 -6
11 -14 22 -17 25 -3 3 -26 32 -51 66 -74 97 -79 103 -199 224 -118 119 -182
176 -245 220 -20 14 -42 30 -50 37 -48 45 -415 252 -415 236 0 -5 -4 -3 -8 3
-13 19 -346 144 -384 144 -10 0 -18 5 -18 11 0 5 -3 8 -8 5 -4 -2 -59 8 -122
24 -113 27 -165 38 -225 45 -16 2 -30 4 -30 5 0 2 -36 7 -105 14 -25 2 -65 7
-90 10 -25 3 -72 9 -105 12 -72 8 -3442 12 -3454 4z m1747 -1475 c28 0 52 3
52 8 0 4 5 5 12 1 17 -11 108 -11 108 0 0 5 6 4 13 -1 6 -5 68 -7 137 -6 69 2
131 3 138 3 17 0 99 0 115 0 6 0 30 -1 52 -3 22 -2 47 0 56 5 9 4 19 4 23 1
10 -10 106 -10 106 0 0 5 5 5 12 1 7 -4 104 -8 217 -9 197 -2 367 -11 384 -22
4 -2 26 -6 50 -9 36 -3 72 -12 217 -48 110 -28 307 -128 404 -206 79 -63 226
-230 226 -258 0 -5 4 -12 9 -14 25 -10 130 -280 146 -378 4 -25 9 -54 12 -65
28 -121 32 -414 8 -575 -3 -19 -8 -50 -11 -69 -8 -55 -52 -204 -75 -257 -13
-27 -23 -51 -23 -54 -4 -17 -51 -100 -57 -100 -4 0 -10 -11 -13 -25 -4 -14
-11 -25 -16 -25 -6 0 -10 -4 -10 -9 0 -5 -15 -26 -32 -47 -130 -151 -292 -257
-500 -327 -57 -19 -116 -37 -133 -40 -16 -3 -41 -8 -55 -11 -54 -13 -77 -17
-125 -22 -27 -3 -61 -8 -75 -11 -14 -4 -343 -8 -732 -10 l-708 -4 -1 43 c-1
24 -1 46 -1 49 2 11 2 118 2 344 1 250 0 232 1 325 0 41 1 80 0 85 -1 20 -1
445 0 555 1 41 0 84 0 95 -6 91 -5 155 2 155 5 0 5 5 2 10 -4 6 -6 140 -5 298
0 158 1 296 1 307 0 11 0 54 0 95 0 41 1 80 0 85 -1 31 -2 132 -2 145 1 9 4
11 9 5 4 -5 31 -10 60 -10z"/>
<path d="M22824 18829 c-3 -6 -6 -5518 -4 -8339 l0 -205 843 0 842 0 0 1382
c0 761 2 1384 5 1384 3 1 361 3 795 4 435 1 790 3 790 4 0 1 38 4 85 6 90 5
137 9 300 30 30 3 57 8 60 10 3 2 26 6 51 9 35 5 159 33 313 71 33 8 210 67
221 74 6 3 12 6 15 7 3 1 20 5 38 9 17 4 32 11 32 16 0 5 8 9 18 9 10 0 22 3
26 8 4 4 11 7 14 8 16 2 187 88 190 96 2 4 8 8 14 8 32 0 326 198 438 295 85
75 250 247 310 325 19 24 40 50 45 56 6 6 17 22 25 34 8 12 21 28 28 36 6 7
12 17 12 23 0 6 5 11 10 11 6 0 10 6 10 13 0 6 14 30 30 51 17 22 30 46 30 53
0 7 4 13 8 13 8 0 133 242 167 325 17 40 115 313 114 318 0 1 2 14 6 28 3 14
8 34 10 45 2 10 4 19 5 19 2 0 4 9 13 55 3 14 13 58 21 98 9 40 18 87 21 105
2 18 6 43 9 57 9 43 20 141 32 285 8 109 8 429 0 540 -4 44 -8 103 -10 130 -2
28 -5 50 -6 50 -1 0 -3 14 -5 30 -7 77 -17 138 -42 255 -8 41 -17 84 -18 95
-2 11 -4 21 -5 23 -3 2 -3 3 -14 52 -14 63 -75 255 -96 305 -5 11 -25 61 -45
110 -20 50 -43 100 -51 112 -8 12 -14 29 -14 38 0 8 -3 15 -8 15 -4 0 -15 19
-26 43 -10 23 -33 65 -52 94 -19 28 -34 56 -34 62 0 6 -3 11 -8 11 -4 0 -13
13 -20 28 -6 16 -21 38 -32 50 -11 12 -20 26 -20 32 0 5 -4 10 -8 10 -4 0 -16
14 -26 32 -19 32 -34 51 -71 93 -11 13 -35 42 -54 64 -67 83 -218 228 -312
302 -24 18 -46 36 -49 39 -3 3 -27 21 -55 40 -27 19 -51 38 -53 42 -2 4 -8 8
-14 8 -5 0 -29 14 -53 30 -24 17 -48 30 -54 30 -6 0 -11 4 -11 8 0 4 -60 38
-132 74 -183 91 -196 97 -353 150 -33 11 -67 23 -75 26 -23 8 -42 13 -72 19
-16 3 -28 8 -28 12 0 4 -8 7 -17 8 -10 0 -61 11 -113 23 -120 27 -138 31 -237
45 -18 3 -47 7 -64 10 -17 2 -61 7 -97 11 -37 3 -87 8 -112 11 -75 7 -3421 9
-3426 2z m1814 -1467 c7 7 12 8 12 3 0 -6 29 -10 65 -10 36 0 65 4 65 8 0 5 6
5 13 0 17 -10 69 -10 85 1 7 5 12 5 12 -1 0 -10 111 -10 128 1 7 4 12 3 12 -1
0 -5 19 -8 43 -6 23 2 49 3 57 3 8 0 58 -1 110 -3 52 -1 101 2 108 7 7 5 12 5
12 0 0 -5 16 -9 35 -9 19 0 35 4 35 9 0 5 6 4 13 -1 6 -5 23 -8 37 -6 31 4 39
4 70 0 14 -2 30 -1 35 2 16 8 35 10 35 3 0 -4 42 -8 93 -8 138 -3 207 -8 207
-17 0 -5 4 -5 10 -2 8 5 61 -2 135 -19 11 -2 43 -9 70 -16 86 -19 237 -78 319
-125 43 -25 82 -45 86 -45 5 0 10 -3 12 -7 2 -5 29 -27 60 -51 72 -55 181
-171 236 -250 23 -35 42 -65 42 -68 0 -3 9 -18 20 -34 11 -15 17 -29 14 -32
-2 -3 2 -11 11 -18 8 -7 15 -20 15 -29 0 -9 4 -21 9 -26 5 -6 23 -50 40 -100
27 -82 35 -110 46 -170 2 -11 6 -31 9 -45 23 -105 29 -178 29 -350 1 -238 -24
-417 -83 -586 -31 -91 -99 -237 -112 -242 -4 -2 -8 -9 -8 -16 0 -7 -10 -26
-22 -43 -13 -16 -32 -43 -43 -58 -74 -103 -180 -201 -301 -278 -89 -56 -209
-114 -257 -124 -10 -2 -28 -8 -40 -15 -12 -7 -34 -13 -49 -14 -14 -1 -36 -7
-47 -14 -12 -6 -21 -9 -21 -6 0 2 -15 0 -32 -4 -61 -17 -116 -25 -233 -36 -76
-7 -1283 -13 -1315 -6 -13 3 -15 167 -14 1415 1 777 2 1418 3 1424 1 8 12 11
30 9 16 -2 35 0 42 5 7 4 20 4 29 -1 11 -6 21 -5 28 2z"/>
<path d="M9562 14062 c-24 -2 -32 -7 -28 -17 3 -8 2 -16 -2 -19 -4 -2 -6 -267
-4 -588 l2 -583 5078 0 5077 0 -1 597 c0 329 -2 600 -5 602 -9 9 -239 11 -239
3 0 -5 -5 -5 -11 -2 -9 6 -135 9 -156 4 -5 -1 -12 0 -18 1 -13 3 -267 3 -280
0 -5 -1 -13 -2 -17 -1 -20 5 -160 2 -165 -2 -3 -3 -11 -3 -18 -1 -22 9 -295 9
-295 1 0 -5 -5 -5 -11 -2 -9 6 -135 9 -156 4 -5 -1 -12 0 -18 1 -13 3 -267 3
-280 0 -5 -1 -13 -2 -17 -1 -20 5 -160 2 -165 -2 -3 -3 -11 -3 -18 -1 -22 9
-295 9 -295 1 0 -5 -5 -5 -11 -2 -9 6 -135 9 -156 4 -5 -1 -12 0 -18 1 -13 3
-267 3 -280 0 -5 -1 -13 -2 -17 -1 -20 5 -160 2 -165 -2 -3 -3 -11 -3 -18 -1
-22 9 -295 9 -295 1 0 -5 -5 -5 -11 -2 -9 6 -135 9 -156 4 -5 -1 -12 0 -18 1
-13 3 -267 3 -280 0 -5 -1 -13 -2 -17 -1 -20 5 -160 2 -165 -2 -3 -3 -11 -3
-18 -1 -22 9 -295 9 -295 1 0 -5 -5 -5 -11 -2 -9 6 -135 9 -156 4 -5 -1 -12
-1 -17 0 -12 3 -5390 3 -5402 0 -5 -1 -12 -1 -16 0 -20 5 -160 2 -165 -2 -3
-3 -11 -3 -18 -1 -15 6 -206 10 -253 6z"/>
</g>
</svg>
