<?xml version="1.0" standalone="no"?>
<!DOCTYPE svg PUBLIC "-//W3C//DTD SVG 20010904//EN"
 "http://www.w3.org/TR/2001/REC-SVG-20010904/DTD/svg10.dtd">
<svg version="1.0" xmlns="http://www.w3.org/2000/svg"
 width="4000.000000pt" height="4000.000000pt" viewBox="0 0 4000.000000 4000.000000"
 preserveAspectRatio="xMidYMid meet">
<metadata>
Created by potrace 1.14, written by Peter Selinger 2001-2017
</metadata>
<g transform="translate(0.000000,4000.000000) scale(0.100000,-0.100000)"
fill="#000000" stroke="none">
<path d="M11495 21509 l0 -12637 2680 0 2680 0 0 4846 0 4847 1425 2 1425 3
36 -58 c20 -31 85 -136 144 -232 60 -96 123 -197 140 -225 17 -27 58 -93 91
-146 75 -121 75 -121 126 -204 23 -38 52 -84 65 -101 13 -17 23 -34 23 -38 0
-4 9 -19 19 -34 11 -15 128 -202 261 -417 200 -322 509 -819 690 -1110 20 -33
51 -82 69 -110 53 -85 145 -233 257 -415 59 -96 112 -176 116 -178 4 -2 8 -8
8 -12 0 -5 37 -69 83 -142 46 -73 206 -331 357 -573 150 -242 287 -462 305
-490 17 -27 67 -107 111 -177 43 -71 96 -154 116 -185 21 -32 41 -65 45 -73 5
-9 55 -91 113 -184 58 -92 112 -180 121 -194 9 -15 118 -191 242 -390 125
-200 227 -368 227 -372 0 -5 4 -10 8 -12 5 -2 34 -46 66 -98 65 -107 185 -302
244 -394 57 -89 214 -342 233 -374 9 -15 118 -191 244 -392 125 -201 235 -377
244 -392 9 -15 60 -98 114 -185 54 -87 136 -219 182 -293 46 -74 87 -140 93
-145 5 -6 11 -16 13 -21 2 -6 81 -133 174 -282 94 -150 175 -280 180 -289 12
-21 269 -436 293 -473 9 -14 21 -33 27 -42 18 -32 87 -142 121 -195 l34 -51
2970 0 2970 0 -11 21 c-7 12 -31 50 -55 85 -24 35 -44 67 -44 72 0 4 -4 10 -8
12 -4 2 -46 59 -92 128 -46 69 -140 208 -208 310 -69 102 -144 212 -166 246
-23 33 -45 67 -51 76 -9 15 -57 86 -330 486 -49 73 -94 141 -100 152 -5 11
-13 20 -17 20 -5 0 -8 4 -8 10 0 5 -14 29 -30 52 -17 24 -69 101 -118 173 -48
71 -91 134 -95 140 -4 5 -96 140 -203 300 -107 159 -202 299 -210 310 -8 11
-58 86 -112 166 -202 304 -277 414 -282 419 -3 3 -53 77 -112 165 -182 271
-497 739 -505 750 -13 16 -327 483 -338 503 -5 9 -13 19 -16 22 -3 3 -27 39
-54 80 -28 41 -52 77 -55 80 -3 3 -63 93 -135 200 -71 107 -134 199 -138 205
-4 5 -61 89 -125 185 -65 96 -203 301 -307 455 -104 154 -238 354 -299 445
-61 91 -113 167 -116 170 -3 3 -62 91 -133 195 -184 274 -543 807 -704 1044
-76 112 -142 211 -148 219 -28 43 -152 227 -260 387 -67 99 -197 293 -290 430
-93 138 -214 318 -270 400 -56 83 -166 247 -246 365 -79 118 -147 217 -150
220 -5 4 -44 62 -74 112 -5 9 -74 110 -151 225 -78 114 -188 278 -245 363 -57
85 -106 157 -109 160 -3 3 -74 107 -157 231 l-152 226 60 27 c83 37 413 200
419 207 3 3 52 29 110 59 114 58 506 284 531 306 8 8 19 14 23 14 9 0 70 43
74 53 2 4 8 7 13 7 10 0 225 141 348 229 39 28 75 51 80 51 5 0 11 3 13 8 2 4
73 59 158 122 85 63 203 153 261 200 58 47 122 99 143 115 21 17 48 38 60 48
42 36 129 112 140 123 6 5 36 32 66 58 162 142 498 487 620 636 63 77 83 101
97 115 7 7 71 91 142 186 72 96 134 179 138 184 33 43 274 414 289 445 4 8 24
42 45 76 20 33 52 89 71 125 20 35 58 105 85 154 28 50 62 115 75 145 14 30
44 93 66 140 46 98 56 120 126 295 43 106 84 216 91 245 1 3 4 12 8 20 34 86
128 418 167 595 48 213 101 506 115 630 5 50 15 138 20 175 2 19 7 60 10 90 3
30 8 71 10 90 27 234 27 1216 0 1500 -2 19 -6 76 -10 125 -4 50 -9 98 -11 108
-2 10 -6 53 -9 95 -6 71 -9 107 -19 172 -3 14 -7 52 -11 85 -4 32 -8 67 -10
76 -2 9 -6 40 -10 70 -3 30 -12 90 -21 134 -8 44 -19 107 -25 140 -34 188 -33
185 -73 355 -13 58 -28 123 -32 145 -3 22 -10 47 -15 56 -4 9 -11 29 -14 45
-3 16 -23 90 -46 164 -22 74 -42 142 -44 150 -2 8 -16 49 -30 90 -14 41 -28
82 -30 90 -6 26 -71 201 -110 295 -21 50 -45 110 -55 135 -29 74 -157 347
-196 418 -20 37 -50 92 -66 122 -17 30 -64 111 -105 180 -41 69 -80 134 -86
145 -17 28 -131 199 -137 205 -3 3 -25 34 -50 70 -24 36 -50 72 -57 80 -7 8
-35 44 -63 80 -78 100 -160 200 -190 230 -3 3 -39 43 -80 90 -175 199 -452
460 -660 625 -41 32 -77 61 -80 64 -21 23 -327 243 -450 323 -135 88 -272 173
-305 190 -16 8 -77 42 -135 75 -113 65 -382 202 -495 253 -181 83 -274 123
-325 142 -30 11 -79 31 -107 44 -29 13 -64 26 -78 30 -14 3 -28 10 -31 15 -3
5 -11 9 -19 9 -8 0 -26 5 -42 12 -15 6 -30 12 -33 13 -3 1 -12 5 -20 8 -56 25
-457 159 -510 172 -8 1 -44 13 -80 25 -36 12 -76 24 -89 27 -14 2 -28 6 -33 9
-4 3 -16 7 -25 9 -10 2 -94 24 -187 50 -158 42 -550 140 -600 149 -13 2 -70
14 -127 25 -57 12 -115 23 -129 26 -14 3 -36 7 -50 10 -38 8 -72 15 -105 20
-16 3 -64 12 -105 20 -78 15 -355 61 -425 70 -22 3 -51 8 -65 10 -14 3 -47 7
-75 10 -27 3 -61 8 -75 10 -49 9 -86 14 -135 20 -79 9 -134 15 -215 25 -130
17 -145 19 -216 25 -38 4 -87 8 -109 11 -21 2 -71 6 -110 9 -38 4 -83 8 -100
9 -16 2 -68 7 -115 10 -47 4 -105 9 -130 11 -25 2 -88 7 -140 10 -52 3 -115 8
-140 10 -43 4 -115 8 -370 21 -510 25 -846 27 -4685 28 l-3900 1 0 -12636z
m7475 8237 c282 -10 571 -27 715 -41 22 -2 76 -7 120 -10 44 -4 96 -8 115 -11
19 -2 76 -8 125 -14 50 -5 126 -14 170 -20 44 -6 96 -13 115 -16 19 -2 42 -6
50 -9 8 -2 38 -7 65 -11 28 -3 59 -8 70 -10 11 -3 34 -7 52 -10 64 -10 359
-73 423 -89 36 -9 72 -18 80 -20 36 -8 152 -39 230 -62 47 -13 92 -26 100 -28
30 -7 326 -112 345 -123 11 -6 52 -23 90 -38 72 -29 296 -140 395 -196 52 -29
289 -186 300 -198 3 -3 30 -25 60 -50 147 -121 311 -292 405 -424 11 -15 34
-47 51 -70 17 -22 42 -62 57 -88 14 -25 37 -64 51 -87 132 -208 292 -674 331
-961 3 -25 10 -70 15 -100 17 -100 25 -186 35 -375 14 -242 -3 -702 -30 -855
-6 -32 -12 -73 -20 -130 -9 -68 -71 -336 -95 -410 -11 -36 -26 -83 -32 -105
-20 -69 -114 -295 -166 -400 -70 -142 -194 -341 -262 -422 -5 -7 -10 -16 -10
-22 0 -5 -3 -11 -7 -13 -5 -1 -39 -39 -77 -83 -109 -127 -252 -271 -347 -350
-74 -61 -86 -71 -172 -133 -127 -91 -277 -181 -437 -261 -77 -39 -144 -71
-148 -72 -11 -2 -54 -19 -87 -34 -32 -16 -204 -79 -270 -100 -159 -52 -269
-85 -289 -89 -12 -2 -67 -16 -122 -31 -54 -15 -110 -29 -124 -31 -13 -3 -56
-12 -95 -20 -38 -9 -79 -17 -90 -20 -17 -3 -148 -27 -270 -49 -16 -3 -100 -14
-185 -26 -85 -11 -166 -22 -180 -24 -30 -5 -111 -13 -195 -20 -33 -3 -78 -7
-100 -10 -22 -3 -71 -8 -110 -10 -38 -2 -106 -7 -151 -10 -286 -22 -594 -27
-1649 -29 l-960 -1 0 3415 0 3415 960 -1 c528 -1 1048 -4 1155 -8z"/>
</g>
</svg>
